<svg class="size-12" viewBox="0 0 60 60" fill="none" xmlns="http://www.w3.org/2000/svg">
                  <path fill-rule="evenodd" clip-rule="evenodd"
                    d="M53.0898 14.9845L54.4318 11.6287C54.4318 11.6287 52.7239 9.76431 50.65 7.65138C48.576 5.53845 44.1842 6.78135 44.1842 6.78135L39.1825 1H30.3989H21.6153L16.6135 6.78135C16.6135 6.78135 12.2217 5.53845 10.1478 7.65138C8.0739 9.76431 6.36598 11.6287 6.36598 11.6287L7.70792 14.9845L6 19.9561C6 19.9561 11.0231 39.3397 11.6117 41.7068C12.7707 46.3677 13.5637 48.1699 16.8575 50.5314C20.1514 52.8929 26.1291 56.9945 27.105 57.616C28.081 58.2374 29.3009 59.296 30.3989 59.296C31.4968 59.296 32.7168 58.2374 33.6927 57.616C34.6687 56.9945 40.6464 52.8929 43.9403 50.5314C47.2341 48.1699 48.0271 46.3677 49.186 41.7068C49.7745 39.3397 54.7978 19.9561 54.7978 19.9561L53.0898 14.9845Z"
                    fill="url(#paint0_linear_1_3)"></path>
                  <path fill-rule="evenodd" clip-rule="evenodd"
                    d="M30.3989 37.2786C30.7333 37.2786 32.8757 38.0492 34.595 38.9555C36.3141 39.862 37.5601 40.5029 37.9584 40.7568C38.3566 41.0109 38.1137 41.4898 37.751 41.751C37.3882 42.0123 32.5132 45.8583 32.0401 46.2834C31.5669 46.7086 30.8716 47.4107 30.3989 47.4107C29.9262 47.4107 29.2308 46.7086 28.7577 46.2834C28.2845 45.8583 23.4096 42.0123 23.0468 41.751C22.684 41.4898 22.4412 41.0109 22.8394 40.7568C23.2377 40.5029 24.4836 39.862 26.2029 38.9555C27.9219 38.0492 30.0645 37.2786 30.3989 37.2786ZM30.425 9.88554C30.5892 9.89019 31.5143 9.93598 32.8388 10.3858C34.3027 10.8829 35.8887 11.5044 36.6206 11.5044C37.3526 11.5044 42.7813 10.4479 42.7813 10.4479C42.7813 10.4479 49.2148 18.3714 49.2148 20.0649C49.2148 21.7583 48.4055 22.2053 47.5918 23.0856C46.7781 23.966 43.2243 27.8108 42.7679 28.3044C42.3115 28.7982 41.3614 29.5468 41.9203 30.8943C42.4792 32.2417 43.3036 33.9563 42.3868 35.6953C41.4699 37.4344 39.8992 38.5951 38.8928 38.4032C37.8863 38.2112 35.5227 36.9528 34.6535 36.3779C33.7843 35.8031 31.0294 33.4883 31.0294 32.6026C31.0294 31.7171 33.8771 30.1269 34.4031 29.7656C34.9294 29.4044 37.329 28.006 37.3782 27.4571C37.4272 26.9082 37.4086 26.7472 36.7004 25.3909C35.9922 24.0346 34.7169 22.2247 34.9292 21.0204C35.1414 19.8163 37.1983 19.1901 38.6661 18.6253C40.1337 18.0607 42.9597 16.9942 43.3126 16.8284C43.6658 16.6624 43.5745 16.5045 42.505 16.4012C41.4357 16.2979 38.401 15.8875 37.0328 16.276C35.6647 16.6645 33.3273 17.2557 33.1379 17.5691C32.9486 17.8826 32.7816 17.8932 32.976 18.9745C33.1704 20.0558 34.1715 25.2444 34.2686 26.166C34.3658 27.0876 34.5559 27.6969 33.5805 27.9241C32.6051 28.1513 30.9631 28.5458 30.3989 28.5458C29.8347 28.5458 28.1926 28.1513 27.2173 27.9241C26.2418 27.6969 26.4319 27.0876 26.5291 26.166C26.6264 25.2444 27.6273 20.0558 27.8218 18.9745C28.0161 17.8932 27.8491 17.8826 27.6599 17.5691C27.4706 17.2557 25.133 16.6645 23.7649 16.276C22.3967 15.8875 19.3621 16.2979 18.2927 16.4012C17.2233 16.5045 17.132 16.6624 17.4851 16.8284C17.8381 16.9942 20.6641 18.0607 22.1317 18.6253C23.5994 19.1901 25.6564 19.8163 25.8686 21.0204C26.0809 22.2247 24.8055 24.0346 24.0974 25.3909C23.3892 26.7472 23.3704 26.9082 23.4196 27.4571C23.4686 28.006 25.8684 29.4044 26.3946 29.7656C26.9207 30.1269 29.7683 31.7171 29.7683 32.6026C29.7683 33.4883 27.0136 35.8031 26.1444 36.3779C25.2751 36.9528 22.9115 38.2112 21.905 38.4032C20.8986 38.5951 19.3279 37.4344 18.411 35.6953C17.4942 33.9563 18.3187 32.2417 18.8774 30.8943C19.4362 29.5468 18.4863 28.7982 18.0298 28.3044C17.5735 27.8108 14.0196 23.966 13.2059 23.0856C12.3922 22.2053 11.583 21.7583 11.583 20.0649C11.583 18.3714 18.0165 10.4479 18.0165 10.4479C18.0165 10.4479 23.4452 11.5044 24.1772 11.5044C24.9092 11.5044 26.4951 10.8829 27.959 10.3858C29.2835 9.93598 30.2086 9.89019 30.3728 9.88554H30.425Z"
                    fill="white"></path>
                  <path
                    d="M44.1843 6.78138L39.1825 1.00003H30.3989H21.6153L16.6135 6.78138C16.6135 6.78138 12.2217 5.53848 10.1478 7.65141C10.1478 7.65141 16.0036 7.11286 18.0165 10.4479C18.0165 10.4479 23.4452 11.5044 24.1772 11.5044C24.9092 11.5044 26.4951 10.8829 27.959 10.3858C29.423 9.88863 30.3989 9.88502 30.3989 9.88502C30.3989 9.88502 31.3749 9.88863 32.8388 10.3858C34.3027 10.8829 35.8887 11.5044 36.6206 11.5044C37.3526 11.5044 42.7813 10.4479 42.7813 10.4479C44.7942 7.11286 50.65 7.65141 50.65 7.65141C48.5761 5.53848 44.1843 6.78138 44.1843 6.78138Z"
                    fill="url(#paint1_linear_1_3)"></path>
                  <defs>
                    <linearGradient id="paint0_linear_1_3" x1="6" y1="2956.93" x2="4885.78" y2="2956.93"
                      gradientUnits="userSpaceOnUse">
                      <stop stop-color="#FF5500"></stop>
                      <stop offset="0.409877" stop-color="#FF5500"></stop>
                      <stop offset="0.581981" stop-color="#FF2000"></stop>
                      <stop offset="1" stop-color="#FF2000"></stop>
                    </linearGradient>
                    <linearGradient id="paint1_linear_1_3" x1="97.1642" y1="533.63" x2="4060.36" y2="533.63"
                      gradientUnits="userSpaceOnUse">
                      <stop stop-color="#FF452A"></stop>
                      <stop offset="1" stop-color="#FF2000"></stop>
                    </linearGradient>
                  </defs>
                </svg>